<svg xmlns="http://www.w3.org/2000/svg" width="32" height="32" fill="none" viewBox="0 0 32 32">
  <rect width="28" height="28" x="2" y="2" fill="url(#a)" rx="8"/>
  <g clip-path="url(#b)">
    <path stroke="#101828" stroke-linecap="round" stroke-linejoin="round" d="M22.63 16.845a.095.095 0 1 1-.19 0 .095.095 0 0 1 .19 0Z"/>
  </g>
  <path fill="#101828" d="M22.178 18.631h.714v3.81h-.714zm-5.034 2.91c0-.274.066-.49.198-.647.138-.158.308-.275.511-.35.203-.077.475-.15.816-.222.386-.081.67-.147.853-.198a1.2 1.2 0 0 0 .412-.183.361.361 0 0 0 .144-.297c0-.148-.076-.267-.228-.358-.148-.097-.356-.145-.625-.145-.244 0-.5.063-.77.19-.27.122-.518.303-.747.541a2.404 2.404 0 0 0-.526.823h-.038v-1.097c.178-.315.458-.572.839-.77a2.784 2.784 0 0 1 1.303-.297c.508 0 .894.13 1.158.389.264.254.396.62.396 1.097v2.401h-.685v-.922h-.039c-.177.28-.424.515-.739.708a1.99 1.99 0 0 1-1.074.29c-.361 0-.646-.089-.854-.267a.884.884 0 0 1-.305-.686Zm.724-.068c0 .122.046.22.138.297a.623.623 0 0 0 .396.114c.269 0 .523-.076.762-.228a2.603 2.603 0 0 0 .991-1.121v-.038c-.133.056-.32.12-.564.19a9.92 9.92 0 0 1-.846.207c-.305.06-.529.137-.671.228-.137.092-.206.209-.206.35Zm-2.628-1.456c0-.284-.058-.495-.175-.632-.117-.138-.287-.206-.51-.206-.198 0-.407.06-.625.183-.214.117-.42.27-.617.457a4.167 4.167 0 0 0-.511.58v2.018h-.686v-5.335h.686v2.401h.038a3.36 3.36 0 0 1 .83-.679c.316-.182.643-.274.984-.274.411 0 .726.117.945.35.218.234.327.587.327 1.06v2.478h-.685v-2.401Zm-3.963-1.41-.427.61H9.105v-.61h2.172ZM8.61 20.97v-1.753H8v-.038c.061-.071.18-.213.358-.427l.541-.632c.178-.214.297-.356.358-.427h.039v3.391c0 .28.053.483.16.61.111.127.274.19.487.19.264 0 .498-.088.702-.266.203-.178.363-.394.48-.648h.038v.953a1.664 1.664 0 0 1-1.28.572c-.29 0-.529-.052-.717-.153a.977.977 0 0 1-.42-.488c-.09-.224-.136-.518-.136-.884Zm7.959-7.538c0 .421.134.757.403 1.006.275.244.66.365 1.159.365.386 0 .729-.08 1.029-.243a1.57 1.57 0 0 0 .686-.71h.038v.93a2.447 2.447 0 0 1-.747.458c-.3.117-.635.175-1.006.175-.473 0-.882-.084-1.227-.251a1.893 1.893 0 0 1-.793-.709c-.178-.3-.267-.64-.267-1.021 0-.386.084-.73.252-1.03a1.82 1.82 0 0 1 .724-.7 2.267 2.267 0 0 1 1.082-.252c.391 0 .74.084 1.044.252a1.796 1.796 0 0 1 .976 1.616c0 .157-.013.284-.038.38H16.34v-.61h2.827c-.05-.33-.19-.583-.419-.761-.229-.178-.51-.267-.846-.267a1.46 1.46 0 0 0-.716.168 1.08 1.08 0 0 0-.457.472c-.107.203-.16.447-.16.732Zm-2.154 1.981c-.427 0-.747-.122-.96-.366-.209-.244-.313-.63-.313-1.158v-3.887h.686v3.849c0 .33.053.566.16.709.107.137.269.205.488.205.38 0 .66-.216.838-.647h.038v.914a1.25 1.25 0 0 1-.373.274 1.33 1.33 0 0 1-.564.107Zm-2.605-2.088v2.012h-.685v-.876h-.039a3.342 3.342 0 0 1-.83.678 1.931 1.931 0 0 1-.983.274c-.412 0-.727-.117-.945-.35-.219-.234-.328-.587-.328-1.06v-2.476h.686v2.4c0 .285.058.495.175.633.117.137.287.205.51.205.199 0 .405-.058.618-.175a3.08 3.08 0 0 0 .617-.457c.199-.188.371-.384.519-.587v-2.019h.685v1.798Z"/>
  <defs>
    <linearGradient id="a" x1="16" x2="16" y1="2" y2="30" gradientUnits="userSpaceOnUse">
      <stop stop-color="#F5F5F5"/>
      <stop offset="1" stop-color="#E6E6E6"/>
    </linearGradient>
    <clipPath id="b">
      <path fill="#fff" d="M21.106 15.416h2.858v2.858h-2.858z"/>
    </clipPath>
  </defs>
</svg>
