<svg width="171" height="151" viewBox="0 0 171 151" fill="none" xmlns="http://www.w3.org/2000/svg">
  <path fill-rule="evenodd" clip-rule="evenodd" d="M57.0209 76.9935C61.1444 71.8171 68.437 78.1712 64.6703 83.0767C60.7218 88.2183 52.9114 82.1522 57.0209 76.9935ZM91.5922 54.014C95.8612 48.6187 102.916 55.1909 99.3017 59.9274C95.2697 65.2108 87.4744 59.218 91.5922 54.014ZM85.4672 31.2707C85.6637 29.3881 88.6147 25.0836 90.0854 23.2838C108.486 0.766113 143.19 18.4207 139.55 47.3314C139.338 49.0144 139.045 50.2341 138.757 51.6427C136.47 62.821 129.715 71.2611 128.161 76.1178C125.75 83.6564 135.38 88.5581 140.035 80.9582C142.899 76.2826 148.168 65.8666 149.757 60.7865C150.201 59.3658 150.628 57.905 151.09 56.5811C151.645 54.9872 151.541 53.8719 151.981 52.2932C152.517 50.3686 152.315 49.8652 152.606 47.9562C153.298 43.4166 152.57 35.4724 150.783 29.6912C142.849 4.02822 110.58 -10.3699 86.1739 8.86943C83.3805 11.0714 81.0368 13.7193 79.0911 16.3933C69.6804 29.3242 79.5329 22.1741 65.1934 26.8781C55.082 30.1954 45.7296 37.5099 40.4265 46.1975C39.0334 48.4792 36.7143 47.6527 31.7865 48.6153C17.8994 51.3283 6.50865 61.3153 2.14027 74.3172C1.35073 76.6677 0.460647 80.1952 0.22745 82.6205C-2.73608 113.434 23.8181 131.725 47.3283 131.274C53.1091 131.163 59.2882 130.857 65.436 130.173C75.7137 129.03 74.1093 118.506 66.9822 117.432C65.4118 117.195 53.4243 118.355 48.9308 118.317C45.6774 118.289 42.7966 118.154 40.1022 117.677C30.8428 116.038 21.7923 110.845 16.6873 101.588C7.30235 84.5696 15.9998 62.6483 39.3153 60.6096L41.3846 60.6868C41.0739 63.0078 40.4881 65.133 40.165 67.7367C39.2144 75.3925 41.0369 82.8529 45.2613 90.0102C48.119 94.8525 52.6582 99.4934 56.8939 102.055C60.2694 104.097 67.336 107.392 70.035 107.132C68.6732 104.889 65.0498 100.185 64.3169 98.1358C63.2806 95.2369 66.8824 92.965 69.4257 94.0025C72.6938 95.3359 78.7222 106.579 81.0005 110.3C86.4135 105.643 90.1927 99.5902 91.9781 98.9556C93.4227 98.442 95.2932 99.233 95.9429 101.192C96.9437 104.209 90.7207 110.733 88.1956 113.101L84.7075 116.387L87.3735 122.361C89.7078 120.59 92.2922 117.684 94.0002 115.491C95.5774 113.466 99.0504 109.717 101.127 114.377C102.229 116.85 99.459 119.58 97.4705 121.914C95.4341 124.303 93.5954 126.289 91.1379 128.527C105.236 151.014 136.384 159.677 156.381 139.357C170.279 125.235 164.459 96.8742 168.615 85.0851C169.339 83.0302 171.782 79.1996 167.937 77.3862C166.13 76.5339 161.606 76.3268 159.498 76.0294C156.322 75.5819 153.111 74.6687 151.605 77.9758C147.671 86.6166 154.114 115.172 148.244 125.333C144.777 131.335 138.018 134.723 132.141 134.545C127.025 134.39 120.887 131.87 116.594 126.074C108.919 115.717 109.586 99.8956 109.124 89.9569C108.986 86.9715 108.71 84.2574 108.482 81.1397C107.971 74.1441 106.323 75.4254 105.194 72.0246C104.001 68.428 107.639 65.0627 110.372 66.8753C111.79 67.8164 115.639 74.1831 116.979 76.1046C117.523 74.8573 118.053 71.06 118.042 69.1249C118.029 66.8765 117.788 64.3015 117.422 61.8021C115.316 47.3911 101.75 34.3079 88.7243 32.1449C86.9861 31.8561 86.9737 32.0477 85.4672 31.2707Z" fill="#008FD7"/>
  </svg>