<svg xmlns="http://www.w3.org/2000/svg" width="20" height="20" fill="none" viewBox="0 0 20 20">
  <path stroke="#667085" stroke-linecap="round" stroke-linejoin="round" stroke-width="1.667" d="M17.5 8.333h-15m10.833-6.666V5M6.667 1.667V5m2.083 6.667 1.25-.834V15m-1.042 0h2.084M6.5 18.333h7c1.4 0 2.1 0 2.635-.272a2.5 2.5 0 0 0 1.092-1.093c.273-.534.273-1.235.273-2.635v-7c0-1.4 0-2.1-.273-2.635a2.5 2.5 0 0 0-1.092-1.092c-.535-.273-1.235-.273-2.635-.273h-7c-1.4 0-2.1 0-2.635.273a2.5 2.5 0 0 0-1.093 1.092C2.5 5.233 2.5 5.933 2.5 7.333v7c0 1.4 0 2.1.272 2.635a2.5 2.5 0 0 0 1.093 1.093c.535.272 1.235.272 2.635.272Z"/>
</svg>
